<?xml version="1.0" encoding="utf-8"?>
<!-- Generator: Adobe Illustrator 16.0.0, SVG Export Plug-In . SVG Version: 6.00 Build 0)  -->
<!DOCTYPE svg PUBLIC "-//W3C//DTD SVG 1.1//EN" "http://www.w3.org/Graphics/SVG/1.1/DTD/svg11.dtd">
<svg version="1.1" id="Capa_1" xmlns="http://www.w3.org/2000/svg" xmlns:xlink="http://www.w3.org/1999/xlink" x="0px" y="0px"
	 width="62.689px" height="53.104px" viewBox="0 0 62.689 53.104" enable-background="new 0 0 62.689 53.104" xml:space="preserve">
<path fill="#FFFFFF" d="M40.669,53.104c-1.995,0-3.646-1.465-3.959-3.366H21.538c-0.304,1.909-1.964,3.366-3.959,3.366
	s-3.646-1.465-3.958-3.366H9.639c-0.352,0-0.64-0.288-0.64-0.639V37.604c0-0.062,0.008-0.125,0.023-0.187l2.399-8.035
	c0.077-0.272,0.327-0.46,0.615-0.46h10.91c0.351,0,0.639,0.289,0.639,0.639v4.707l2.213,9.749h2.688v-2.025
	c-0.218-0.048-0.438-0.095-0.647-0.148c-0.232-0.054-0.412-0.242-0.475-0.475l-2.705-11.472c-0.054-0.233,0.023-0.482,0.21-0.639
	c3.103-2.618,7.637-4.722,12.78-5.938c6.343-1.495,12.531-1.341,16.543,0.422c0.188,0.077,0.32,0.24,0.366,0.436l2.111,8.946
	c0.046,0.194,0,0.404-0.133,0.553c-1.122,1.34-2.665,2.61-4.52,3.749c0.008,0.031,0.008,0.062,0.008,0.093v6.499h1.699
	c0.351,0,0.639,0.289,0.639,0.64v4.441c0,0.352-0.288,0.639-0.639,0.639h-0.936c-0.312,1.909-1.964,3.366-3.958,3.366
	c-1.995,0-3.646-1.457-3.959-3.366H44.62C44.324,51.647,42.664,53.104,40.669,53.104z M37.942,49.176
	c0.046,1.465,1.254,2.65,2.727,2.65c1.504,0,2.729-1.225,2.729-2.729s-1.225-2.728-2.729-2.728s-2.727,1.224-2.727,2.728
	C37.95,49.122,37.942,49.153,37.942,49.176z M14.852,49.215c0.062,1.449,1.262,2.618,2.727,2.618c1.504,0,2.729-1.224,2.729-2.728
	s-1.225-2.728-2.721-2.728c-1.504,0-2.719,1.224-2.719,2.728C14.86,49.137,14.86,49.176,14.852,49.215z M46.116,49.168
	c0.039,1.473,1.247,2.658,2.727,2.658c1.505,0,2.729-1.224,2.729-2.729c0-1.114-0.67-2.064-1.621-2.494
	c-0.335-0.147-0.709-0.233-1.107-0.233c-1.504,0-2.727,1.224-2.727,2.728C46.116,49.122,46.116,49.145,46.116,49.168z M52.802,48.46
	h0.288v-3.164h-2.969c0.117,0.039,0.234,0.085,0.343,0.132C51.688,45.974,52.584,47.104,52.802,48.46z M44.636,48.46h0.248
	c0.234-1.481,1.286-2.689,2.674-3.164h-0.53c-0.008,0-0.016,0-0.023,0h-5.058C43.342,45.763,44.394,46.979,44.636,48.46z
	 M21.546,48.46H36.71c0.241-1.481,1.286-2.689,2.682-3.164h-14.09c-0.008,0-0.016,0-0.022,0h-2.322
	c-0.351,0-0.639-0.289-0.639-0.639V34.354c0-0.008,0-0.015,0-0.022v-4.122h-9.795l-2.237,7.488V48.46h3.343
	c0.305-1.91,1.963-3.367,3.958-3.367c0.009,0,0.009,0,0.017,0C19.582,45.085,21.242,46.55,21.546,48.46z M48.166,44.018h2.587
	v-4.224L48.166,44.018z M37.279,44.018h9.382l3.353-5.463c-2.386,1.208-5.145,2.206-8.09,2.899
	c-1.565,0.365-3.125,0.639-4.645,0.811V44.018L37.279,44.018z M29.767,44.018h6.233v-1.636c-2.206,0.164-4.316,0.109-6.233-0.164
	V44.018z M23.595,44.018h0.896l-0.896-3.951V44.018z M29.252,40.838c3.538,0.631,7.98,0.405,12.383-0.631
	c5.931-1.396,11.026-4.036,13.724-7.1l-1.956-8.314c-3.78-1.535-9.515-1.621-15.445-0.227c-4.707,1.106-9.039,3.078-11.945,5.415
	l2.524,10.7c0.234,0.054,0.468,0.102,0.709,0.141C29.237,40.83,29.245,40.83,29.252,40.838z M19.598,38.165H12.42
	c-0.203,0-0.396-0.093-0.514-0.266c-0.117-0.164-0.156-0.374-0.094-0.568l1.792-5.696c0.085-0.265,0.327-0.444,0.607-0.444h5.386
	c0.351,0,0.639,0.288,0.639,0.64v5.695C20.237,37.877,19.948,38.165,19.598,38.165z M13.293,36.887h5.666v-4.418h-4.277
	L13.293,36.887z M28.388,30.816c-0.195,0-0.391-0.085-0.516-0.257c-0.21-0.28-0.156-0.686,0.125-0.896
	c0.132-0.103,3.397-2.525,9.727-4.083c0.343-0.086,0.685,0.125,0.771,0.468s-0.124,0.686-0.468,0.771
	c-6.047,1.488-9.234,3.842-9.265,3.865C28.653,30.771,28.52,30.816,28.388,30.816z"/>
</svg>
