<?xml version="1.0" encoding="utf-8"?>
<!-- Generator: Adobe Illustrator 16.0.0, SVG Export Plug-In . SVG Version: 6.00 Build 0)  -->
<!DOCTYPE svg PUBLIC "-//W3C//DTD SVG 1.1//EN" "http://www.w3.org/Graphics/SVG/1.1/DTD/svg11.dtd">
<svg version="1.1" id="Capa_1" xmlns="http://www.w3.org/2000/svg" xmlns:xlink="http://www.w3.org/1999/xlink" x="0px" y="0px"
	 width="74.689px" height="92.667px" viewBox="0 0 74.689 92.667" enable-background="new 0 0 74.689 92.667" xml:space="preserve">
<g>
	<g>
		<path fill="#FFFFFF" d="M64.869,55.371H63.64V31.708c0-1.392-1.063-2.455-2.456-2.455H11.898c-1.393,0-2.456,1.063-2.456,2.455
			v34.305c0,1.393,1.063,2.457,2.456,2.457h17.604c-0.082,0.246-0.164,0.49-0.164,0.818v4.338c0,1.393,1.063,2.457,2.457,2.457
			h11.707c1.393,0,2.456-1.064,2.456-2.457v-4.338c0-0.328-0.081-0.572-0.164-0.818h7.287v5.156c0,1.393,1.063,2.457,2.456,2.457
			h9.252c1.394,0,2.456-1.064,2.456-2.457V57.826C67.326,56.435,66.181,55.371,64.869,55.371z M11.899,30.89h49.287
			c0.49,0,0.818,0.328,0.818,0.82v23.581h-6.386c-1.394,0-2.457,1.062-2.457,2.455v3.19H11.08V31.709
			C11.08,31.3,11.406,30.89,11.899,30.89z M43.583,74.447H31.794c-0.492,0-0.818-0.326-0.818-0.818h13.346
			C44.403,74.119,43.992,74.447,43.583,74.447z M44.403,69.289v2.701H30.974v-2.701c0-0.49,0.326-0.817,0.818-0.817H43.5
			C43.992,68.47,44.403,68.878,44.403,69.289z M43.583,66.833H31.794H11.899c-0.492,0-0.818-0.328-0.818-0.82v-3.438h42v4.258
			H43.583L43.583,66.833z M65.689,73.628c0,0.49-0.326,0.817-0.818,0.817h-9.333c-0.491,0-0.817-0.325-0.817-0.817V67.65v-9.822
			c0-0.492,0.326-0.82,0.817-0.82h7.205h2.047c0.491,0,0.818,0.328,0.818,0.82v15.801H65.689L65.689,73.628z"/>
	</g>
</g>
</svg>
