<?xml version="1.0" encoding="utf-8"?>
<!-- Generator: Adobe Illustrator 16.0.0, SVG Export Plug-In . SVG Version: 6.00 Build 0)  -->
<!DOCTYPE svg PUBLIC "-//W3C//DTD SVG 1.1//EN" "http://www.w3.org/Graphics/SVG/1.1/DTD/svg11.dtd">
<svg version="1.1" id="Capa_1" xmlns="http://www.w3.org/2000/svg" xmlns:xlink="http://www.w3.org/1999/xlink" x="0px" y="0px"
	 width="83.5px" height="84.5px" viewBox="0 0 83.5 84.5" enable-background="new 0 0 83.5 84.5" xml:space="preserve">
<g>
	<g>
		<path fill="#FFFFFF" d="M66.5,26.797H36.709L29.25,43.959l0.375,0.318c0.92,0.75,1.443,1.867,1.443,3.056
			c0,2.178-1.778,3.955-3.954,3.955c-2.177,0-3.954-1.777-3.954-3.955c0-1.956,1.458-3.635,3.392-3.913l0.359-0.057l7.198-16.567
			H16.604v49.896H66.5v-7.811H51.409l-0.196,0.294c-0.691,1.068-1.867,1.703-3.131,1.703c-2.062,0-3.734-1.679-3.734-3.733
			c0-2.062,1.672-3.734,3.734-3.734c1.615,0,3.042,1.027,3.547,2.56l0.146,0.449H66.5V39.393H49.95v8.064l0.416,0.154
			c1.491,0.57,2.495,2.015,2.495,3.613c0,2.135-1.737,3.863-3.865,3.863c-2.127,0-3.864-1.729-3.864-3.863
			c0-1.437,0.791-2.748,2.07-3.418l0.342-0.187V37.006H66.5V26.797L66.5,26.797z M43.852,51.23c0,2.848,2.315,5.162,5.153,5.162
			c2.845,0,5.152-2.314,5.152-5.162c0-1.973-1.142-3.781-2.911-4.639v-5.895h13.958v24.434H52.682
			c-0.8-1.834-2.594-3.009-4.606-3.009c-2.772,0-5.03,2.259-5.03,5.03s2.258,5.031,5.03,5.031c1.581,0,3.065-0.742,4.019-2.007
			h13.102v5.218H17.9V28.094h14.237l-6.133,14.113c-2.405,0.521-4.141,2.65-4.141,5.127c0,2.895,2.356,5.251,5.25,5.251
			c2.895,0,5.25-2.356,5.25-5.251c0-1.4-0.563-2.747-1.549-3.727l6.743-15.515h27.646v7.614H46.256V46.87
			C44.764,47.809,43.852,49.462,43.852,51.23z"/>
		<path fill="#FFFFFF" d="M25.132,47.236c0,1.084,0.881,1.957,1.956,1.957c1.077,0,1.957-0.879,1.957-1.957
			c0-1.075-0.88-1.956-1.957-1.956C26.013,45.28,25.132,46.161,25.132,47.236z"/>
		<path fill="#FFFFFF" d="M46.834,51.184c0,1.076,0.882,1.957,1.957,1.957c1.076,0,1.957-0.881,1.957-1.957
			s-0.881-1.957-1.957-1.957C47.716,49.227,46.834,50.107,46.834,51.184z"/>
		<circle fill="#FFFFFF" cx="48.042" cy="67.155" r="1.957"/>
	</g>
</g>
</svg>
