<?xml version="1.0" encoding="utf-8"?>
<!-- Generator: Adobe Illustrator 16.0.0, SVG Export Plug-In . SVG Version: 6.00 Build 0)  -->
<!DOCTYPE svg PUBLIC "-//W3C//DTD SVG 1.1//EN" "http://www.w3.org/Graphics/SVG/1.1/DTD/svg11.dtd">
<svg version="1.1" id="Capa_1" xmlns="http://www.w3.org/2000/svg" xmlns:xlink="http://www.w3.org/1999/xlink" x="0px" y="0px"
	 width="51.5px" height="54.5px" viewBox="0 0 51.5 54.5" enable-background="new 0 0 51.5 54.5" xml:space="preserve">
<g>
	<g>
		<path fill="#FFFFFF" d="M41.229,15.229H23.344l-4.479,10.303l0.226,0.19c0.553,0.451,0.866,1.121,0.866,1.835
			c0,1.307-1.066,2.375-2.374,2.375c-1.307,0-2.374-1.067-2.374-2.375c0-1.174,0.875-2.183,2.036-2.349l0.215-0.034l4.322-9.946
			H11.274v29.956h29.955v-4.689h-9.06l-0.118,0.176c-0.416,0.643-1.121,1.023-1.88,1.023c-1.237,0-2.241-1.008-2.241-2.242
			c0-1.238,1.004-2.242,2.241-2.242c0.97,0,1.826,0.616,2.129,1.537l0.089,0.27h8.838V22.791h-9.936v4.84l0.25,0.093
			c0.896,0.342,1.497,1.208,1.497,2.168c0,1.281-1.042,2.319-2.32,2.319c-1.276,0-2.319-1.038-2.319-2.319
			c0-0.861,0.475-1.649,1.244-2.052l0.205-0.113v-6.373h11.379v-6.126H41.229z M27.632,29.896c0,1.709,1.39,3.099,3.095,3.099
			c1.707,0,3.092-1.39,3.092-3.099c0-1.185-0.685-2.271-1.746-2.785v-3.539h8.379v14.669h-7.518
			c-0.479-1.102-1.558-1.807-2.766-1.807c-1.664,0-3.02,1.356-3.02,3.021s1.355,3.021,3.02,3.021c0.949,0,1.84-0.445,2.413-1.205
			h7.866v3.133H12.053V16.007h8.546l-3.681,8.473c-1.443,0.313-2.486,1.59-2.486,3.078c0,1.738,1.415,3.152,3.152,3.152
			c1.738,0,3.152-1.415,3.152-3.152c0-0.841-0.337-1.649-0.93-2.237l4.047-9.314h16.598v4.571H29.076v6.701
			C28.18,27.842,27.632,28.835,27.632,29.896z"/>
		<path fill="#FFFFFF" d="M16.395,27.499c0,0.651,0.528,1.175,1.174,1.175s1.175-0.529,1.175-1.175c0-0.646-0.529-1.175-1.175-1.175
			S16.395,26.853,16.395,27.499z"/>
		<path fill="#FFFFFF" d="M29.423,29.868c0,0.646,0.529,1.175,1.175,1.175c0.646,0,1.176-0.529,1.176-1.175
			s-0.529-1.175-1.176-1.175C29.952,28.693,29.423,29.223,29.423,29.868z"/>
		<circle fill="#FFFFFF" cx="30.146" cy="39.457" r="1.175"/>
	</g>
</g>
</svg>
