<?xml version="1.0" encoding="utf-8"?>
<!-- Generator: Adobe Illustrator 16.0.0, SVG Export Plug-In . SVG Version: 6.00 Build 0)  -->
<!DOCTYPE svg PUBLIC "-//W3C//DTD SVG 1.1//EN" "http://www.w3.org/Graphics/SVG/1.1/DTD/svg11.dtd">
<svg version="1.1" id="Capa_1" xmlns="http://www.w3.org/2000/svg" xmlns:xlink="http://www.w3.org/1999/xlink" x="0px" y="0px"
	 width="74.689px" height="92.667px" viewBox="0 0 74.689 92.667" enable-background="new 0 0 74.689 92.667" xml:space="preserve">
<g>
	<g>
		<path fill="#FFFFFF" d="M46.813,32.012H46.05v-14.69c0-0.864-0.662-1.525-1.523-1.525H13.926c-0.864,0-1.523,0.661-1.523,1.525
			v21.296c0,0.866,0.659,1.524,1.523,1.524h10.929c-0.049,0.155-0.103,0.307-0.103,0.509v2.693c0,0.865,0.659,1.525,1.525,1.525
			h7.268c0.865,0,1.524-0.66,1.524-1.525v-2.693c0-0.202-0.047-0.354-0.099-0.509h4.521v3.201c0,0.866,0.659,1.526,1.525,1.526h5.74
			c0.866,0,1.525-0.66,1.525-1.526v-9.81C48.339,32.673,47.629,32.012,46.813,32.012z M13.927,16.813h30.601
			c0.306,0,0.509,0.203,0.509,0.509v14.64h-3.964c-0.865,0-1.525,0.659-1.525,1.525v1.981H13.419V17.322
			C13.419,17.068,13.621,16.813,13.927,16.813z M33.597,43.857h-7.319c-0.306,0-0.508-0.202-0.508-0.509h8.285
			C34.106,43.65,33.851,43.857,33.597,43.857z M34.106,40.652v1.68h-8.337v-1.68c0-0.306,0.203-0.509,0.509-0.509h7.268
			C33.851,40.143,34.106,40.398,34.106,40.652z M33.597,39.127h-7.319H13.927c-0.306,0-0.508-0.203-0.508-0.509v-2.133h26.076v2.642
			H33.597L33.597,39.127z M47.322,43.348c0,0.302-0.202,0.509-0.509,0.509h-5.794c-0.308,0-0.508-0.202-0.508-0.509v-3.713v-6.101
			c0-0.302,0.2-0.508,0.508-0.508h4.472h1.271c0.307,0,0.509,0.206,0.509,0.508v9.813L47.322,43.348L47.322,43.348z"/>
	</g>
</g>
</svg>
