<?xml version="1.0" encoding="utf-8"?>
<!-- Generator: Adobe Illustrator 16.0.0, SVG Export Plug-In . SVG Version: 6.00 Build 0)  -->
<!DOCTYPE svg PUBLIC "-//W3C//DTD SVG 1.1//EN" "http://www.w3.org/Graphics/SVG/1.1/DTD/svg11.dtd">
<svg version="1.1" id="Capa_1" xmlns="http://www.w3.org/2000/svg" xmlns:xlink="http://www.w3.org/1999/xlink" x="0px" y="0px"
	 width="86.5px" height="82.5px" viewBox="0 0 86.5 82.5" enable-background="new 0 0 86.5 82.5" xml:space="preserve">
<g>
	<g>
		<g>
			<path fill="#FFFFFF" d="M14.88,40.167c0-0.483,0.392-0.875,0.875-0.875c0.482,0,0.874,0.391,0.874,0.875v31.51
				c0,0.993,0.411,1.904,1.066,2.56c0.655,0.656,1.567,1.066,2.56,1.066h45.011c0.993,0,1.903-0.41,2.561-1.066
				c0.654-0.654,1.064-1.565,1.064-2.56v-31.51c0-0.483,0.393-0.875,0.875-0.875c0.483,0,0.875,0.391,0.875,0.875v31.51
				c0,1.476-0.602,2.824-1.576,3.791c-0.974,0.974-2.313,1.575-3.789,1.575H20.246c-1.476,0-2.824-0.602-3.79-1.575
				c-0.975-0.975-1.576-2.315-1.576-3.799V40.167z"/>
			<path fill="#FFFFFF" d="M31.751,43.283H23.37v9.51h8.381V43.283L31.751,43.283z M22.496,41.542h10.103h0.019
				c0.483,0,0.874,0.392,0.874,0.875v11.231v0.02c0,0.482-0.391,0.875-0.874,0.875H22.523h-0.018c-0.483,0-0.874-0.393-0.874-0.875
				V42.436v-0.018C21.622,41.934,22.013,41.542,22.496,41.542z"/>
			<path fill="#FFFFFF" d="M62.132,43.283h-8.381v9.51h8.381V43.283L62.132,43.283z M52.877,41.542H62.98h0.027
				c0.483,0,0.874,0.392,0.874,0.875v11.231v0.02c0,0.482-0.391,0.875-0.874,0.875H52.904h-0.018c-0.484,0-0.875-0.393-0.875-0.875
				V42.436v-0.018C52.002,41.934,52.395,41.542,52.877,41.542z"/>
			<path fill="#FFFFFF" d="M46.945,43.283h-8.379v9.51h8.379V43.283L46.945,43.283z M37.691,41.542h10.103h0.028
				c0.482,0,0.875,0.392,0.875,0.875v11.231v0.02c0,0.482-0.393,0.875-0.875,0.875H37.709h-0.027c-0.482,0-0.875-0.393-0.875-0.875
				V42.436v-0.018C36.816,41.934,37.208,41.542,37.691,41.542z"/>
			<path fill="#FFFFFF" d="M31.751,59.042H23.37v9.51h8.381V59.042L31.751,59.042z M22.496,57.293h10.103h0.019
				c0.483,0,0.874,0.393,0.874,0.875V69.4v0.026c0,0.483-0.391,0.875-0.874,0.875H22.523h-0.018c-0.483,0-0.874-0.392-0.874-0.875
				V58.195v-0.019C21.622,57.686,22.013,57.293,22.496,57.293z"/>
			<path fill="#FFFFFF" d="M62.132,59.042h-8.381v9.51h8.381V59.042L62.132,59.042z M52.877,57.293H62.98h0.027
				c0.483,0,0.874,0.393,0.874,0.875V69.4v0.026c0,0.483-0.391,0.875-0.874,0.875H52.904h-0.018c-0.484,0-0.875-0.392-0.875-0.875
				V58.195v-0.019C52.002,57.686,52.395,57.293,52.877,57.293z"/>
			<path fill="#FFFFFF" d="M46.945,59.042h-8.379v9.51h8.379V59.042L46.945,59.042z M37.691,57.293h10.103h0.028
				c0.482,0,0.875,0.393,0.875,0.875V69.4v0.026c0,0.483-0.393,0.875-0.875,0.875H37.709h-0.027c-0.482,0-0.875-0.392-0.875-0.875
				V58.195v-0.019C36.816,57.686,37.208,57.293,37.691,57.293z"/>
			<path fill="#FFFFFF" d="M56.693,31.33c0,0.483-0.392,0.875-0.875,0.875c-0.481,0-0.875-0.392-0.875-0.875v-9.393
				c0-0.482,0.393-0.874,0.865-0.874c0.483,0,0.875,0.392,0.875,0.874L56.693,31.33L56.693,31.33z"/>
			<path fill="#FFFFFF" d="M30.558,31.33c0,0.483-0.391,0.875-0.874,0.875c-0.482,0-0.875-0.392-0.875-0.875v-9.393
				c0-0.482,0.392-0.874,0.865-0.874c0.483,0,0.875,0.392,0.875,0.874v9.393H30.558z"/>
			<path fill="#FFFFFF" d="M29.684,25.427c0.483,0,0.874,0.392,0.874,0.874c0,0.483-0.391,0.875-0.874,0.875h-9.438
				c-0.993,0-1.896,0.41-2.561,1.075l-0.045,0.045c-0.638,0.656-1.029,1.549-1.029,2.515v4h52.263v-4c0-0.993-0.41-1.895-1.065-2.56
				l-0.045-0.045c-0.656-0.637-1.549-1.029-2.515-1.029h-5.958c-0.484,0-0.875-0.392-0.875-0.875c0-0.482,0.391-0.874,0.875-0.874
				h5.958c1.438,0,2.76,0.583,3.733,1.53l0.064,0.055c0.975,0.975,1.576,2.313,1.576,3.79v4.837v0.028
				c0,0.482-0.391,0.875-0.874,0.875H15.773h-0.028c-0.482,0-0.874-0.392-0.874-0.875v-4.865c0-1.448,0.592-2.77,1.531-3.735
				l0.055-0.064c0.975-0.975,2.313-1.585,3.79-1.585L29.684,25.427L29.684,25.427L29.684,25.427z M55.818,25.427H33.163
				c-0.482,0-0.874,0.392-0.874,0.874c0,0.483,0.392,0.875,0.874,0.875h22.647c0.482,0,0.875-0.392,0.875-0.875
				C56.693,25.819,56.302,25.427,55.818,25.427z"/>
		</g>
	</g>
</g>
</svg>
