<?xml version="1.0" encoding="utf-8"?>
<!-- Generator: Adobe Illustrator 16.0.0, SVG Export Plug-In . SVG Version: 6.00 Build 0)  -->
<!DOCTYPE svg PUBLIC "-//W3C//DTD SVG 1.1//EN" "http://www.w3.org/Graphics/SVG/1.1/DTD/svg11.dtd">
<svg version="1.1" id="Capa_1" xmlns="http://www.w3.org/2000/svg" xmlns:xlink="http://www.w3.org/1999/xlink" x="0px" y="0px"
	 width="41.096px" height="48.958px" viewBox="0 0 41.096 48.958" enable-background="new 0 0 41.096 48.958" xml:space="preserve">
<g>
	<path fill="#FFFFFF" stroke="#FFFFFF" stroke-miterlimit="10" d="M28.756,47.163H13.257c-0.688,0-1.257-0.57-1.257-1.259v-32.48
		c0-0.686,0.568-1.257,1.257-1.257h15.536c0.686,0,1.256,0.571,1.256,1.257v32.519C30.011,46.59,29.44,47.163,28.756,47.163z
		 M13.257,12.548c-0.457,0-0.875,0.38-0.875,0.875v32.52c0,0.455,0.38,0.875,0.875,0.875h15.536c0.457,0,0.875-0.381,0.875-0.875
		v-32.52c0-0.456-0.38-0.875-0.875-0.875H13.257L13.257,12.548z M20.986,45.829c-0.568,0-1.062-0.494-1.062-1.063
		c0-0.571,0.495-1.065,1.062-1.065c0.572,0,1.066,0.494,1.066,1.065C22.053,45.333,21.596,45.829,20.986,45.829z M20.986,44.077
		c-0.38,0-0.685,0.307-0.685,0.688s0.305,0.686,0.685,0.686c0.381,0,0.688-0.305,0.688-0.686
		C21.711,44.379,21.369,44.077,20.986,44.077z M28.45,42.82H13.598V16.508h14.851L28.45,42.82L28.45,42.82z M13.941,42.438H28.03
		V16.89H13.941V42.438L13.941,42.438z M22.928,14.909h-3.882c-0.19,0-0.343-0.152-0.343-0.342s0.149-0.343,0.343-0.343h3.882
		c0.19,0,0.343,0.153,0.343,0.343C23.308,14.757,23.157,14.909,22.928,14.909z M19.046,14.375c-0.076,0-0.153,0.077-0.153,0.153
		c0,0.076,0.077,0.153,0.153,0.153h3.882c0.077,0,0.154-0.077,0.154-0.153c0-0.076-0.038-0.153-0.154-0.153H19.046z"/>
</g>
</svg>
