<?xml version="1.0" encoding="utf-8"?>
<!-- Generator: Adobe Illustrator 16.0.0, SVG Export Plug-In . SVG Version: 6.00 Build 0)  -->
<!DOCTYPE svg PUBLIC "-//W3C//DTD SVG 1.1//EN" "http://www.w3.org/Graphics/SVG/1.1/DTD/svg11.dtd">
<svg version="1.1" id="Capa_1" xmlns="http://www.w3.org/2000/svg" xmlns:xlink="http://www.w3.org/1999/xlink" x="0px" y="0px"
	 width="53.5px" height="52.5px" viewBox="0 0 53.5 52.5" enable-background="new 0 0 53.5 52.5" xml:space="preserve">
<g>
	<g>
		<g>
			<path fill="#FFFFFF" d="M9.68,23.77c0-0.299,0.243-0.542,0.542-0.542c0.3,0,0.542,0.243,0.542,0.542v19.537
				c0,0.614,0.254,1.18,0.661,1.586c0.407,0.407,0.971,0.662,1.587,0.662h27.905c0.615,0,1.181-0.255,1.587-0.662
				c0.407-0.406,0.661-0.972,0.661-1.586V23.77c0-0.299,0.243-0.542,0.542-0.542c0.3,0,0.543,0.243,0.543,0.542v19.537
				c0,0.914-0.373,1.75-0.979,2.35c-0.604,0.604-1.435,0.977-2.349,0.977H13.007c-0.915,0-1.751-0.372-2.35-0.977
				c-0.605-0.604-0.978-1.436-0.978-2.355L9.68,23.77L9.68,23.77z"/>
			<path fill="#FFFFFF" d="M20.14,25.702h-5.196v5.896h5.196V25.702L20.14,25.702z M14.402,24.623h6.264h0.011
				c0.3,0,0.542,0.243,0.542,0.542v6.964v0.012c0,0.299-0.243,0.541-0.542,0.541H14.42h-0.011c-0.3,0-0.542-0.242-0.542-0.541
				v-6.964v-0.011C13.859,24.866,14.103,24.623,14.402,24.623z"/>
			<path fill="#FFFFFF" d="M38.975,25.702h-5.195v5.896h5.195V25.702L38.975,25.702z M33.236,24.623H39.5h0.018
				c0.299,0,0.541,0.243,0.541,0.542v6.964v0.012c0,0.299-0.242,0.541-0.541,0.541h-6.264h-0.011c-0.3,0-0.542-0.242-0.542-0.541
				v-6.964v-0.011C32.695,24.866,32.938,24.623,33.236,24.623z"/>
			<path fill="#FFFFFF" d="M29.561,25.702h-5.195v5.896h5.195V25.702L29.561,25.702z M23.823,24.623h6.263h0.018
				c0.299,0,0.541,0.243,0.541,0.542v6.964v0.012c0,0.299-0.242,0.541-0.541,0.541h-6.27h-0.017c-0.3,0-0.542-0.242-0.542-0.541
				v-6.964v-0.011C23.28,24.866,23.523,24.623,23.823,24.623z"/>
			<path fill="#FFFFFF" d="M20.14,35.473h-5.196v5.896h5.196V35.473L20.14,35.473z M14.402,34.389h6.264h0.011
				c0.3,0,0.542,0.242,0.542,0.541v6.963v0.018c0,0.3-0.243,0.542-0.542,0.542H14.42h-0.011c-0.3,0-0.542-0.243-0.542-0.542v-6.963
				v-0.012C13.859,34.631,14.103,34.389,14.402,34.389z"/>
			<path fill="#FFFFFF" d="M38.975,35.473h-5.195v5.896h5.195V35.473L38.975,35.473z M33.236,34.389H39.5h0.018
				c0.299,0,0.541,0.242,0.541,0.541v6.963v0.018c0,0.3-0.242,0.542-0.541,0.542h-6.264h-0.011c-0.3,0-0.542-0.243-0.542-0.542
				v-6.963v-0.012C32.695,34.631,32.938,34.389,33.236,34.389z"/>
			<path fill="#FFFFFF" d="M29.561,35.473h-5.195v5.896h5.195V35.473L29.561,35.473z M23.823,34.389h6.263h0.018
				c0.299,0,0.541,0.242,0.541,0.541v6.963v0.018c0,0.3-0.242,0.542-0.541,0.542h-6.27h-0.017c-0.3,0-0.542-0.243-0.542-0.542
				v-6.963v-0.012C23.28,34.631,23.523,34.389,23.823,34.389z"/>
			<path fill="#FFFFFF" d="M35.604,18.292c0,0.299-0.244,0.542-0.543,0.542s-0.541-0.243-0.541-0.542v-5.823
				c0-0.299,0.242-0.542,0.535-0.542c0.299,0,0.543,0.243,0.543,0.542L35.604,18.292L35.604,18.292z"/>
			<path fill="#FFFFFF" d="M19.4,18.292c0,0.299-0.243,0.542-0.542,0.542c-0.299,0-0.542-0.243-0.542-0.542v-5.823
				c0-0.299,0.243-0.542,0.537-0.542c0.299,0,0.542,0.243,0.542,0.542v5.823H19.4z"/>
			<path fill="#FFFFFF" d="M18.858,14.632c0.299,0,0.542,0.243,0.542,0.542c0,0.3-0.243,0.543-0.542,0.543h-5.851
				c-0.616,0-1.175,0.253-1.587,0.666l-0.028,0.029c-0.395,0.406-0.638,0.959-0.638,1.559v2.479h32.4v-2.48
				c0-0.616-0.254-1.175-0.66-1.587l-0.028-0.028c-0.405-0.395-0.96-0.638-1.559-0.638h-3.693c-0.299,0-0.542-0.243-0.542-0.543
				c0-0.299,0.243-0.542,0.542-0.542h3.693c0.892,0,1.711,0.361,2.315,0.949l0.039,0.034c0.604,0.604,0.977,1.435,0.977,2.35v2.999
				v0.017c0,0.299-0.242,0.542-0.541,0.542H10.234h-0.017c-0.299,0-0.542-0.243-0.542-0.542v-3.016c0-0.898,0.367-1.717,0.949-2.315
				l0.034-0.04c0.604-0.605,1.435-0.983,2.35-0.983L18.858,14.632L18.858,14.632L18.858,14.632z M35.061,14.632H21.016
				c-0.299,0-0.542,0.243-0.542,0.542c0,0.3,0.243,0.543,0.542,0.543h14.041c0.299,0,0.541-0.243,0.541-0.543
				C35.604,14.875,35.359,14.632,35.061,14.632z"/>
		</g>
	</g>
</g>
</svg>
