<?xml version="1.0" encoding="utf-8"?>
<!-- Generator: Adobe Illustrator 16.0.0, SVG Export Plug-In . SVG Version: 6.00 Build 0)  -->
<!DOCTYPE svg PUBLIC "-//W3C//DTD SVG 1.1//EN" "http://www.w3.org/Graphics/SVG/1.1/DTD/svg11.dtd">
<svg version="1.1" id="Capa_1" xmlns="http://www.w3.org/2000/svg" xmlns:xlink="http://www.w3.org/1999/xlink" x="0px" y="0px"
	 width="53.5px" height="49.5px" viewBox="0 0 53.5 49.5" enable-background="new 0 0 53.5 49.5" xml:space="preserve">
<path fill="#FFFFFF" d="M33.6,41.184c-1.561,0-2.854-1.146-3.098-2.634H18.631c-0.237,1.494-1.536,2.634-3.097,2.634
	s-2.854-1.146-3.098-2.634H9.321c-0.274,0-0.5-0.226-0.5-0.5v-8.993c0-0.049,0.006-0.098,0.019-0.146l1.877-6.286
	c0.061-0.214,0.256-0.36,0.481-0.36h8.536c0.274,0,0.5,0.226,0.5,0.5v3.683l1.731,7.628h2.104v-1.586
	c-0.171-0.036-0.341-0.073-0.506-0.116c-0.183-0.042-0.323-0.189-0.372-0.372l-2.116-8.975c-0.042-0.183,0.019-0.378,0.165-0.5
	c2.427-2.048,5.975-3.695,10-4.646c4.963-1.171,9.804-1.048,12.943,0.33c0.146,0.061,0.25,0.189,0.287,0.341l1.651,6.999
	c0.037,0.153,0,0.317-0.103,0.433c-0.879,1.05-2.086,2.043-3.537,2.934c0.006,0.023,0.006,0.049,0.006,0.073v5.085h1.328
	c0.274,0,0.5,0.225,0.5,0.5v3.476c0,0.274-0.225,0.5-0.5,0.5h-0.731c-0.244,1.494-1.537,2.634-3.097,2.634
	c-1.562,0-2.854-1.14-3.098-2.634h-0.201C36.46,40.044,35.161,41.184,33.6,41.184z M31.466,38.111
	c0.037,1.146,0.982,2.072,2.134,2.072c1.178,0,2.135-0.957,2.135-2.134s-0.959-2.134-2.135-2.134s-2.134,0.957-2.134,2.134
	C31.473,38.068,31.466,38.092,31.466,38.111z M13.401,38.141c0.049,1.135,0.988,2.049,2.134,2.049c1.176,0,2.134-0.957,2.134-2.133
	c0-1.178-0.958-2.135-2.128-2.135c-1.176,0-2.128,0.957-2.128,2.135C13.407,38.081,13.407,38.111,13.401,38.141z M37.861,38.105
	c0.031,1.151,0.977,2.078,2.135,2.078c1.177,0,2.134-0.957,2.134-2.134c0-0.872-0.524-1.616-1.269-1.95
	c-0.262-0.117-0.555-0.184-0.865-0.184c-1.176,0-2.135,0.957-2.135,2.134C37.861,38.068,37.861,38.086,37.861,38.105z M43.093,37.55
	h0.226v-2.476h-2.322c0.092,0.031,0.184,0.066,0.268,0.104C42.221,35.605,42.922,36.489,43.093,37.55z M36.704,37.55h0.194
	c0.184-1.159,1.006-2.104,2.092-2.476h-0.415c-0.007,0-0.013,0-0.019,0H34.6C35.691,35.439,36.516,36.393,36.704,37.55z
	 M18.638,37.55h11.865c0.188-1.159,1.006-2.104,2.097-2.476H21.577c-0.006,0-0.013,0-0.019,0h-1.817c-0.274,0-0.5-0.227-0.5-0.5
	v-8.061c0-0.006,0-0.013,0-0.018V23.27h-7.664l-1.75,5.859v8.42h2.616c0.237-1.494,1.536-2.634,3.097-2.634c0.006,0,0.006,0,0.012,0
	C17.101,34.91,18.4,36.057,18.638,37.55z M39.465,34.075h2.023V30.77L39.465,34.075z M30.947,34.075h7.341l2.622-4.274
	c-1.866,0.945-4.023,1.725-6.329,2.268c-1.226,0.287-2.444,0.5-3.634,0.636V34.075L30.947,34.075z M25.07,34.075h4.878v-1.281
	c-1.726,0.128-3.378,0.085-4.878-0.128V34.075z M20.241,34.075h0.701l-0.701-3.091V34.075z M24.668,31.587
	c2.768,0.494,6.243,0.317,9.688-0.494c4.641-1.091,8.627-3.157,10.737-5.554l-1.53-6.505c-2.957-1.202-7.443-1.269-12.084-0.177
	c-3.683,0.866-7.073,2.408-9.347,4.237l1.975,8.372c0.183,0.042,0.366,0.079,0.555,0.11C24.656,31.581,24.662,31.581,24.668,31.587z
	 M17.114,29.496h-5.616c-0.158,0-0.311-0.073-0.402-0.208c-0.091-0.128-0.122-0.292-0.073-0.445l1.402-4.457
	c0.067-0.208,0.256-0.348,0.476-0.348h4.213c0.274,0,0.5,0.226,0.5,0.5v4.458C17.614,29.271,17.388,29.496,17.114,29.496z
	 M12.181,28.496h4.433v-3.457h-3.347L12.181,28.496z M23.991,23.746c-0.152,0-0.304-0.066-0.402-0.201
	c-0.165-0.22-0.123-0.537,0.098-0.702c0.104-0.079,2.659-1.975,7.608-3.194c0.27-0.067,0.537,0.098,0.604,0.366
	c0.067,0.268-0.098,0.536-0.365,0.603c-4.731,1.165-7.225,3.006-7.25,3.024C24.198,23.71,24.095,23.746,23.991,23.746z"/>
</svg>
