<?xml version="1.0" encoding="utf-8"?>
<!-- Generator: Adobe Illustrator 16.0.0, SVG Export Plug-In . SVG Version: 6.00 Build 0)  -->
<!DOCTYPE svg PUBLIC "-//W3C//DTD SVG 1.1//EN" "http://www.w3.org/Graphics/SVG/1.1/DTD/svg11.dtd">
<svg version="1.1" id="Capa_1" xmlns="http://www.w3.org/2000/svg" xmlns:xlink="http://www.w3.org/1999/xlink" x="0px" y="0px"
	 width="74.689px" height="92.667px" viewBox="0 0 74.689 92.667" enable-background="new 0 0 74.689 92.667" xml:space="preserve">
<g>
	<path fill="#FFFFFF" stroke="#FFFFFF" stroke-miterlimit="10" d="M50.511,82.133H24.116c-1.168,0-2.141-0.973-2.141-2.141V24.674
		c0-1.168,0.973-2.141,2.141-2.141h26.459c1.168,0,2.14,0.973,2.14,2.141v55.383C52.651,81.161,51.678,82.133,50.511,82.133z
		 M24.116,23.182c-0.777,0-1.49,0.647-1.49,1.49v55.385c0,0.777,0.646,1.492,1.49,1.492h26.459c0.778,0,1.492-0.65,1.492-1.492
		V24.672c0-0.777-0.648-1.49-1.492-1.49H24.116L24.116,23.182z M37.28,79.862c-0.973,0-1.814-0.842-1.814-1.814
		s0.843-1.816,1.814-1.816c0.975,0,1.816,0.844,1.816,1.816C39.097,79.02,38.319,79.862,37.28,79.862z M37.28,76.879
		c-0.646,0-1.166,0.52-1.166,1.168s0.52,1.168,1.166,1.168c0.649,0,1.168-0.52,1.168-1.168C38.513,77.397,37.93,76.879,37.28,76.879
		z M49.992,74.739H24.699V29.926h25.293V74.739z M25.283,74.09h23.995V30.576H25.283V74.09L25.283,74.09z M40.588,27.203h-6.613
		c-0.324,0-0.584-0.259-0.584-0.583s0.26-0.584,0.584-0.584h6.613c0.324,0,0.584,0.26,0.584,0.584
		C41.236,26.944,40.977,27.203,40.588,27.203z M33.974,26.295c-0.13,0-0.26,0.131-0.26,0.26s0.13,0.26,0.26,0.26h6.613
		c0.131,0,0.261-0.131,0.261-0.26s-0.064-0.26-0.261-0.26H33.974z"/>
</g>
</svg>
